#!OML:ASF F:\VICON\USERDATA\Patient Classification 1\PLAYGROUND\JustinFriday\JustinFriday.ASF
:FULLY-SPECIFIED
:DEGREES
4218
root 16.4178 22.7874 49.1007 -369.556 -163.777 -346.429
lowerback 23.1077 2.4686 -2.72036
upperback 8.12543 1.27453 7.33906
thorax -4.18337 -0.250431 9.38302
lowerneck -2.30896 1.12156 -14.713
upperneck 31.0609 -0.132703 -1.29048
head 10.4034 -3.10596 1.81294
rclavicle 2.63514e-014 2.1916e-014
rhumerus 68.9331 -17.4767 -38.4102
rradius 77.9122
rwrist 1.05635
rhand -31.8343 -27.4744
rfingers 7.12502
rthumb -5.08874 -57.3933
lclavicle 2.63514e-014 2.1916e-014
lhumerus 26.6578 -23.642 92.7969
lradius 41.8339
lwrist -34.9631
lhand -17.2433 -9.07764
lfingers 7.12502
lthumb 9.0006 20.7103
rfemur -6.84508 -1.23665 37.9988
rtibia 25.1161
rfoot -11.329 -11.6985
rtoes 17.7717
lfemur -63.4677 19.9018 -4.38912
ltibia 102.372
lfoot -24.3897 -25.8847
ltoes 1.08668
4219
root 16.3882 22.8502 49.1077 -369.708 -162.807 -348.114
lowerback 23.3187 2.31169 -3.80973
upperback 8.47717 0.759136 6.9692
thorax -3.81708 -0.549242 9.75083
lowerneck -2.16661 0.951086 -14.5836
upperneck 30.9411 -0.415066 -1.31215
head 10.3489 -3.20911 1.76088
rclavicle -2.93735e-014 1.1217e-013
rhumerus 67.0737 -16.2614 -38.0085
rradius 80.9498
rwrist 2.3246
rhand -33.1624 -27.6048
rfingers 7.12502
rthumb -6.37104 -57.489
lclavicle -2.93735e-014 1.1217e-013
lhumerus 27.2015 -23.8096 92.3805
lradius 41.7745
lwrist -34.2997
lhand -17.436 -9.2162
lfingers 7.12502
lthumb 8.81463 20.5797
rfemur -5.84565 -2.54076 35.7376
rtibia 24.5644
rfoot -11.8767 -11.0232
rtoes 17.2793
lfemur -62.1135 18.5077 -6.30605
ltibia 102.289
lfoot -25.5668 -24.5953
ltoes 0.854498
4220
root 16.406 22.8335 49.1647 -369.886 -163.56 -347.147
lowerback 25.2366 2.45986 -3.18732
upperback 7.53236 1.2183 7.34085
thorax -5.90217 -0.188103 9.77519
lowerneck -2.22897 1.18271 -14.7387
upperneck 32.5252 -0.55115 -0.649864
head 10.971 -3.41813 1.98624
rclavicle 2.06363e-014 1.56046e-014
rhumerus 64.3813 -13.8118 -37.6358
rradius 84.0097
rwrist 3.40715
rhand -34.5402 -27.9518
rfingers 7.12502
rthumb -7.70096 -57.7916
lclavicle 2.06363e-014 1.56046e-014
lhumerus 25.8004 -23.4061 93.1043
lradius 41.6399
lwrist -34.178
lhand -17.4681 -9.50452
lfingers 7.12502
lthumb 8.78362 20.2927
rfemur -5.86597 -1.56031 36.9698
rtibia 24.1758
rfoot -11.7872 -11.429
rtoes 16.9334
lfemur -62.4524 19.5744 -4.82925
ltibia 102.816
lfoot -25.1541 -24.6099
ltoes 1.08671
4221
root 16.4103 22.8164 49.2189 -370.176 -163.893 -346.204
lowerback 24.7246 2.56047 -2.30944
upperback 8.30045 1.32963 7.84249
thorax -4.80529 -0.294807 9.75739
lowerneck -2.17977 0.894989 -14.5359
upperneck 31.5595 -0.71316 -0.982852
head 10.6017 -3.3767 1.83462
rclavicle -1.04362e-015 -2.67365e-014
rhumerus 63.1723 -13.1059 -37.4244
rradius 86.9293
rwrist 4.21287
rhand -34.5733 -28.4035
rfingers 7.12502
rthumb -7.73294 -58.2421
lclavicle -1.04362e-015 -2.67365e-014
lhumerus 27.4163 -23.4129 92.6028
lradius 41.3259
lwrist -33.669
lhand -17.4454 -9.4357
lfingers 7.12502
lthumb 8.80551 20.3606
rfemur -5.88827 -1.12098 38.0132
rtibia 23.8657
rfoot -11.5617 -11.7532
rtoes 17.4884
lfemur -62.6007 20.0946 -3.60585
ltibia 103.38
lfoot -25.4717 -23.5767
ltoes 0.115245
4222
root 16.3995 22.8118 49.2508 -369.628 -163.848 -346.154
lowerback 23.9207 2.45071 -2.03164
upperback 8.41981 1.23049 7.98394
thorax -4.25116 -0.367994 9.75053
lowerneck -2.11717 0.765657 -14.5167
upperneck 31.5648 -0.955196 -0.867085
head 10.6076 -3.46985 1.85219
rclavicle 1.35174e-014 1.2424e-014
rhumerus 61.2062 -11.5814 -36.9095
rradius 89.5648
rwrist 4.38155
rhand -34.381 -28.6048
rfingers 7.12502
rthumb -7.54736 -58.4501
lclavicle 1.35174e-014 1.2424e-014
lhumerus 28.0429 -23.7745 92.1136
lradius 41.2888
lwrist -32.8216
lhand -17.557 -9.04707
lfingers 7.12502
lthumb 8.69783 20.7537
rfemur -6.54557 -0.961792 38.0208
rtibia 23.7476
rfoot -11.444 -11.7587
rtoes 17.8221
lfemur -62.942 20.2889 -3.60339
ltibia 104.029
lfoot -26.6045 -21.6886
ltoes 0.326869
4223
root 16.3921 22.8284 49.2827 -369.448 -164.471 -346.57
lowerback 25.1927 2.64944 -2.39266
upperback 7.68099 1.5766 7.96407
thorax -5.7769 -0.0798997 9.91186
lowerneck -1.68915 1.02696 -14.5257
upperneck 32.2445 -0.918493 -0.735047
head 10.7807 -3.55161 1.89128
rclavicle 1.07344e-014 -3.47873e-014
rhumerus 58.3849 -8.7582 -36.4579
rradius 92.1232
rwrist 4.36047
rhand -35.0292 -28.6071
rfingers 7.12502
rthumb -8.17297 -58.4291
lclavicle 1.07344e-014 -3.47873e-014
lhumerus 26.6452 -23.5926 92.7323
lradius 41.3109
lwrist -32.5614
lhand -17.6364 -8.84352
lfingers 7.12502
lthumb 8.62121 20.9605
rfemur -6.59645 -0.513768 37.6378
rtibia 23.8206
rfoot -11.2462 -11.5351
rtoes 16.974
lfemur -62.0715 20.933 -3.54297
ltibia 104.502
lfoot -27.4542 -20.0125
ltoes 2.36624
4224
root 16.3843 22.854 49.3117 -368.954 -164.899 -347.164
lowerback 24.8173 2.84978 -2.8319
upperback 7.78731 1.72814 7.93281
thorax -5.5128 -0.0144106 10.0791
lowerneck -1.52109 0.953417 -14.3068
upperneck 31.905 -0.986024 -0.904808
head 10.6192 -3.53792 1.79403
rclavicle -1.58034e-014 -4.8901e-014
rhumerus 56.4238 -7.01743 -36.4613
rradius 94.602
rwrist 5.32994
rhand -34.4654 -28.8319
rfingers 7.12502
rthumb -7.62882 -58.6743
lclavicle -1.58034e-014 -4.8901e-014
lhumerus 26.8048 -23.6648 92.5025
lradius 41.3356
lwrist -32.0944
lhand -17.5979 -9.03084
lfingers 7.12502
lthumb 8.65841 20.7716
rfemur -6.92615 -0.207061 37.0308
rtibia 23.8221
rfoot -10.8994 -11.3069
rtoes 16.1466
lfemur -61.4988 21.2943 -3.81738
ltibia 104.937
lfoot -28.0585 -18.2246
ltoes 2.64557
4225
root 16.3398 22.9103 49.327 -368.626 -164.173 -349.144
lowerback 24.6196 2.72858 -3.90314
upperback 8.16395 1.25697 7.46238
thorax -4.91737 -0.280897 10.3004
lowerneck -2.00899 0.752699 -14.4061
upperneck 31.7937 -1.10147 -0.830101
head 10.6817 -3.55772 1.82844
rclavicle -1.15295e-014 1.41137e-014
rhumerus 54.6671 -5.30322 -36.275
rradius 96.7153
rwrist 5.47834
rhand -34.7294 -28.6422
rfingers 7.12502
rthumb -7.88362 -58.4752
lclavicle -1.15295e-014 1.41137e-014
lhumerus 27.7755 -23.8539 91.8998
lradius 41.1129
lwrist -31.5843
lhand -17.1861 -9.48384
lfingers 7.12502
lthumb 9.0558 20.3018
rfemur -6.59121 -1.46375 34.5083
rtibia 23.5733
rfoot -10.8051 -10.456
rtoes 15.9075
lfemur -60.0049 19.7765 -6.00552
ltibia 105.03
lfoot -28.7776 -15.6353
ltoes 2.74099
4226
root 16.3413 22.8822 49.4304 -368.894 -164.548 -347.019
lowerback 23.6512 2.74976 -1.46208
upperback 9.52961 1.36859 8.32633
thorax -2.90724 -0.506186 9.7327
lowerneck -3.85678 0.0219796 -15.1578
upperneck 31.2676 -1.47264 -0.269389
head 10.8866 -3.59333 2.12858
rclavicle 5.4467e-014 -1.31198e-014
rhumerus 54.2265 -5.1197 -36.0664
rradius 98.5423
rwrist 5.53207
rhand -34.2554 -28.8043
rfingers 7.12502
rthumb -7.42612 -58.6539
lclavicle 5.4467e-014 -1.31198e-014
lhumerus 30.8164 -24.0953 90.7749
lradius 41.1224
lwrist -30.9191
lhand -17.2876 -8.8295
lfingers 7.12502
lthumb 8.95787 20.9603
rfemur -7.35463 -0.651682 36.8236
rtibia 23.4362
rfoot -10.1047 -11.1892
rtoes 15.1993
lfemur -60.8875 20.104 -2.94906
ltibia 106.074
lfoot -26.1268 -18.1879
ltoes 9.57118
4227
root 16.3007 22.9815 49.4288 -368.279 -164.241 -349.451
lowerback 24.9411 2.69169 -3.23774
upperback 8.55538 1.20511 7.69504
thorax -4.62308 -0.394922 10.1862
lowerneck -3.37957 0.345516 -15.1105
upperneck 32.0141 -1.32065 -0.424523
head 11.0689 -3.6647 2.06386
rclavicle -1.94809e-014 -7.59357e-014
rhumerus 51.2659 -1.53649 -35.9062
rradius 99.9032
rwrist 5.94559
rhand -34.1409 -28.5081
rfingers 7.12502
rthumb -7.31559 -58.3616
lclavicle -1.94809e-014 -7.59357e-014
lhumerus 28.9212 -23.9828 91.4229
lradius 41.2277
lwrist -30.7157
lhand -17.2049 -8.41475
lfingers 7.12502
lthumb 9.03759 21.3716
rfemur -7.23893 -1.86742 33.9123
rtibia 23.5282
rfoot -9.91869 -10.0124
rtoes 14.9478
lfemur -58.7457 18.5388 -4.59173
ltibia 106.126
lfoot -24.1519 -20.4024
ltoes 19.2858
4228
root 16.2804 22.9828 49.4583 -367.507 -164.871 -349.825
lowerback 22.6397 2.93946 -3.307
upperback 9.63685 1.31579 7.79228
thorax -2.31341 -0.527071 10.2094
lowerneck -3.90874 -0.129145 -15.1965
upperneck 31.1375 -1.62975 -0.405686
head 10.8633 -3.6711 2.0688
rclavicle 3.69739e-014 1.86858e-014
rhumerus 50.3157 -0.499457 -35.939
rradius 101.124
rwrist 5.79154
rhand -33.1986 -28.4701
rfingers 7.12502
rthumb -6.4059 -58.3532
lclavicle 3.69739e-014 1.86858e-014
lhumerus 31.6051 -24.7446 89.6269
lradius 41.0307
lwrist -29.3357
lhand -17.2739 -8.14959
lfingers 7.12502
lthumb 8.97103 21.6397
rfemur -8.08274 -1.66025 33.5535
rtibia 23.694
rfoot -9.58716 -9.56867
rtoes 14.2817
lfemur -58.2234 19.0047 -4.70209
ltibia 106.418
lfoot -24.405 -18.9734
ltoes 13.1125
